<svg width="24" height="24" viewBox="0 0 24 24" fill="none" xmlns="http://www.w3.org/2000/svg">
<path d="M12.0099 2.0431C11.5495 2.19666 11.6386 2.11051 7.43209 6.34656C5.2193 8.57508 3.3555 10.4852 3.28495 10.5901C3.00279 11.0133 2.92111 11.6575 3.08075 12.1444C3.32208 12.8673 3.89385 13.2943 4.71436 13.3617L5.00767 13.3879L5.01881 16.4442C5.02995 19.4405 5.03366 19.5042 5.10791 19.7064C5.38637 20.448 5.85046 20.9049 6.5299 21.1072C6.70439 21.1596 6.98285 21.1671 8.51621 21.1671C10.2315 21.1671 10.3058 21.1634 10.4246 21.0922C10.4914 21.051 10.5768 20.9649 10.6176 20.8974C10.6882 20.7776 10.6919 20.7027 10.6919 18.3955C10.6919 16.7738 10.7067 15.9685 10.7327 15.8674C10.7958 15.6426 10.9703 15.4142 11.1671 15.2981L11.3416 15.1932H12.5148H13.6881L13.87 15.3056C14.0742 15.4329 14.2673 15.7213 14.3081 15.9498C14.3192 16.0284 14.3304 17.1408 14.3304 18.4255C14.3304 20.9536 14.323 20.8562 14.5346 21.0548L14.6348 21.1484L16.4207 21.1596C17.6162 21.1671 18.2733 21.1559 18.4033 21.1297C18.9156 21.021 19.5097 20.5641 19.7436 20.0997C20.0035 19.5753 19.9886 19.7888 20.0035 16.4254L20.0146 13.3842L20.319 13.358C21.0653 13.2943 21.5554 12.9647 21.8635 12.328C21.9935 12.0508 21.9972 12.0396 21.9972 11.5789C21.9972 11.1145 21.9972 11.107 21.8561 10.8111C21.715 10.5114 21.7113 10.5077 17.6421 6.40274C13.5693 2.29404 13.5693 2.29404 13.2722 2.15171C12.9901 2.01688 12.9529 2.00939 12.5668 2.0019C12.3032 1.99441 12.1064 2.00939 12.0099 2.0431Z" fill="#18333E"/>
</svg>
