<svg width="60" height="55" viewBox="0 0 60 55" fill="none" xmlns="http://www.w3.org/2000/svg">
<path d="M29.3549 0.272305C29.2833 0.305042 29.1791 0.38361 29.1205 0.449081C29.0619 0.521103 26.8345 4.07623 24.1708 8.36466C20.5172 14.2375 19.3254 16.2148 19.3058 16.3915C19.2472 16.9546 19.918 17.3016 20.3413 16.935C20.4 16.8826 22.4905 13.5435 24.9979 9.51042C27.4988 5.47734 29.5698 2.17755 29.5894 2.17755C29.6219 2.17755 32.989 7.5659 39.6776 18.3491C40.0488 18.9449 40.8563 20.2413 41.4685 21.2299C42.0807 22.2185 43.1097 23.8684 43.7415 24.8964C44.3797 25.9243 45.1157 27.1028 45.3762 27.5152C45.6367 27.9277 46.3726 29.1062 47.0108 30.1341C49.2773 33.7875 50.4105 35.6141 50.8989 36.3998C51.1725 36.8385 51.4004 37.2117 51.4004 37.2313C51.4004 37.2575 45.819 37.2706 38.9937 37.2706H26.587V35.5879V33.9053L26.8019 34.1083C27.336 34.6255 28.2413 35.0445 29.1595 35.2082C29.8759 35.3326 30.2537 35.3326 30.4881 35.2082C30.8007 35.0511 30.8528 34.6452 30.6119 34.3571C30.4816 34.213 30.397 34.1803 30.0062 34.1607C28.1175 34.0363 27.0104 33.1786 26.6782 31.5745C26.6261 31.3126 26.5935 31.0835 26.6131 31.0704C26.6261 31.0507 26.815 31.1817 27.0234 31.3519C27.7463 31.9412 28.9576 32.3602 29.9801 32.3602C30.3449 32.3602 30.436 32.334 30.5858 32.1965C30.944 31.8691 30.7096 31.2537 30.2211 31.2406C28.6776 31.2079 27.4532 30.5597 26.9713 29.5252C26.7564 29.0538 26.587 28.3533 26.587 27.8819V27.5611L26.9713 27.9539C27.6291 28.6348 28.7492 29.283 29.2572 29.283C29.5959 29.283 29.8369 28.9622 29.7782 28.5628C29.7522 28.3795 29.5177 28.1961 29.1661 28.0848C28.352 27.823 27.5509 27.0897 27.108 26.1862C26.815 25.5904 26.6782 25.0208 26.6131 24.1434C26.574 23.6589 26.5414 23.5345 26.4177 23.4101C26.2028 23.1941 25.7534 23.2006 25.545 23.4232C25.4147 23.5607 25.3887 23.6851 25.3431 24.2547C25.2845 25.1124 25.1998 25.4594 24.8872 26.1141C24.5681 26.795 24.0601 27.3188 23.4284 27.6265C23.1809 27.7444 22.9074 27.8426 22.8227 27.8426C22.5947 27.8426 22.2886 28.1831 22.2886 28.4319C22.2886 28.6872 22.5947 29.0211 22.8292 29.0211C23.2851 29.0211 24.3597 28.4777 24.9068 27.9735C25.1412 27.764 25.3496 27.6004 25.3692 27.62C25.4213 27.6789 25.3496 28.4188 25.2519 28.8247C24.9068 30.2258 23.9038 31.0115 22.2235 31.1817C21.4355 31.2668 21.3964 31.2799 21.2727 31.5156C21.1424 31.7709 21.2075 32.0525 21.4225 32.2292C21.9435 32.6417 24.1708 32.059 25.0761 31.2799L25.3496 31.0376V31.2275C25.3496 31.8495 24.9068 32.8054 24.4183 33.2506C23.8582 33.7547 22.8878 34.1279 22.1063 34.1279C21.9174 34.1279 21.6634 34.1672 21.5462 34.2196C21.1229 34.3964 21.0968 35.0052 21.5071 35.2279C21.722 35.3457 22.5426 35.2868 23.233 35.1165C23.8452 34.9594 24.7114 34.5404 25.0826 34.213C25.3887 33.9577 25.4278 33.9904 25.3887 34.4553C25.3757 34.619 25.3626 35.3195 25.3561 36.007L25.3496 37.2706H20.3348H16.2514L15.8248 35.1165L15.3201 32.8709L15.6262 33.1458C15.9844 33.4601 16.8245 33.8857 17.3716 34.0297C17.9317 34.1803 18.9346 34.2327 19.1235 34.1279C19.4556 33.9511 19.5077 33.5518 19.2342 33.2702C19.0649 33.1066 18.9932 33.0804 18.6611 33.0804C17.7884 33.0738 16.831 32.7268 16.2514 32.203C15.8736 31.856 15.5545 31.2995 15.4243 30.7365C15.3331 30.3305 15.3591 30.2389 15.522 30.4353C15.6522 30.5924 16.1211 30.9067 16.5575 31.1228C17.4041 31.5418 18.9411 31.7316 19.2277 31.4436C19.5012 31.1686 19.4426 30.7365 19.117 30.5728C19.0193 30.5204 18.6871 30.4615 18.381 30.4418C17.1501 30.3567 16.1537 29.7609 15.6848 28.8378C15.5154 28.4973 15.3201 27.8099 15.3201 27.5283C15.3201 27.3843 15.3396 27.3908 15.6327 27.6462C16.3165 28.2616 17.5344 28.6937 18.5634 28.6937C19.0062 28.6937 19.117 28.6741 19.2277 28.5628C19.4035 28.386 19.4491 28.1438 19.3449 27.9343C19.2277 27.6855 19.0062 27.5807 18.5699 27.5807C18.0814 27.5807 17.2869 27.3712 16.8115 27.1159C16.3556 26.8736 15.9192 26.4153 15.6848 25.957C15.5154 25.6166 15.3201 24.9291 15.3201 24.6476C15.3201 24.5035 15.3396 24.5101 15.6262 24.7654C16.0234 25.1124 16.844 25.5183 17.4953 25.682C17.9903 25.8064 18.902 25.8588 19.13 25.7737C19.2928 25.7082 19.4361 25.3678 19.3905 25.1582C19.3189 24.8309 19.156 24.7523 18.4722 24.6934C16.7919 24.5494 15.7499 23.744 15.4178 22.3299C15.3656 22.1007 15.3201 21.8454 15.3201 21.7668C15.3201 21.6228 15.3396 21.6293 15.6131 21.8715C16.2905 22.4673 17.326 22.8602 18.3875 22.9126C19.0323 22.9453 19.0909 22.9387 19.2147 22.8143C19.4035 22.6245 19.4491 22.3888 19.3449 22.1727C19.2277 21.9239 19.0062 21.8192 18.5699 21.8192C18.114 21.8192 17.326 21.6228 16.8831 21.3936C15.8932 20.8895 15.3266 19.8419 15.3201 18.5194V18.0676L15.828 18.5587C16.6682 19.3836 17.9186 20.0973 18.6415 20.1627C18.9672 20.1955 19.1951 20.0514 19.2668 19.7568C19.3514 19.4294 19.1756 19.2592 18.4657 18.9646C17.606 18.6176 17.059 18.2575 16.4989 17.6617C15.789 16.9088 15.3201 15.763 15.3201 14.7809C15.3201 14.447 15.1898 14.1327 15.027 14.0673C14.773 13.9691 14.4343 14.028 14.278 14.1917C14.1543 14.3292 14.1217 14.4536 14.0826 14.9577C14.0305 15.6452 13.9459 15.9791 13.7179 16.5028C13.223 17.629 12.1809 18.5259 10.7807 19.0366C10.5332 19.1283 10.2988 19.2527 10.2597 19.3116C10.1164 19.5015 10.1555 19.8812 10.3378 20.0514C10.4746 20.1824 10.5397 20.1955 10.8263 20.1627C11.2171 20.1169 12.194 19.6651 12.7866 19.2592C13.0146 19.1086 13.3988 18.7813 13.6463 18.5325C13.8873 18.2902 14.1022 18.0873 14.1282 18.0873C14.1934 18.0873 14.0826 19.1676 13.9784 19.5735C13.7765 20.3657 13.3011 20.968 12.5978 21.3478C12.1158 21.6031 11.3213 21.8192 10.8458 21.8192C10.4681 21.8192 10.149 21.9436 10.0838 22.1138C9.99267 22.356 10.0448 22.6507 10.2076 22.8013C10.3574 22.9387 10.403 22.9453 11.0021 22.9126C12.0572 22.8536 12.8387 22.5917 13.6007 22.0418L14.0826 21.6948V21.9108C14.0826 22.5263 13.5877 23.5083 13.0732 23.9143C12.4935 24.3791 11.5687 24.6999 10.8263 24.6999C10.4681 24.6999 10.149 24.8243 10.0838 24.9946C9.99918 25.2303 10.0448 25.5314 10.1946 25.6689C10.3248 25.7868 10.4225 25.813 10.8198 25.813C11.8097 25.813 12.8127 25.4922 13.6007 24.9225L14.0826 24.5755V24.7916C14.0826 25.4267 13.5486 26.4677 13.0276 26.8409C12.3893 27.2926 11.5492 27.5807 10.8263 27.5807C10.4681 27.5807 10.149 27.7051 10.0838 27.8753C9.99918 28.111 10.0448 28.4122 10.1946 28.5497C10.3248 28.6741 10.4225 28.6937 10.8654 28.6937C11.8227 28.6937 12.8973 28.3336 13.6789 27.7509L14.0826 27.4498V27.6724C14.0826 28.039 13.8352 28.7199 13.5551 29.1455C13.0471 29.9115 11.9204 30.4549 10.8393 30.4615C10.4681 30.4615 10.149 30.5859 10.0838 30.7561C9.99918 30.9918 10.0448 31.293 10.1946 31.4305C10.3248 31.5549 10.4225 31.5745 10.8654 31.5745C11.8423 31.5745 13.0211 31.1751 13.757 30.5859L14.0892 30.324L14.0436 30.5728C13.8156 31.8233 12.9169 32.6941 11.5687 32.9822C11.3213 33.0345 10.9566 33.0804 10.7547 33.0804C10.4551 33.0804 10.3574 33.1131 10.2141 33.244C9.97313 33.4732 9.97313 33.866 10.2271 34.0624C10.3899 34.1999 10.4551 34.2065 11.0217 34.1738C11.3603 34.1541 11.8162 34.0886 12.0311 34.0297C12.5652 33.8922 13.3272 33.519 13.731 33.2048C13.9133 33.0673 14.0761 32.9494 14.0892 32.9494C14.1152 32.9494 13.7049 37.2378 13.6789 37.2706C13.6658 37.2771 12.6303 37.264 10.9044 37.2575L7.77184 37.2378L8.64454 35.8302C9.35443 34.6975 9.52376 34.3767 9.52376 34.1868C9.52376 33.6958 9.01577 33.3946 8.58593 33.6303C8.30588 33.7809 5.98736 37.5128 5.9548 37.8664C5.92223 38.1675 6.01993 38.3509 6.26741 38.4818C6.43674 38.5669 9.04182 38.58 29.674 38.5669L52.8983 38.5473L53.0742 38.3705C53.4193 38.0235 53.3672 37.8729 52.3187 36.1903C51.3939 34.7041 50.0914 32.609 48.1506 29.4794C47.6035 28.5955 46.8676 27.417 46.5159 26.8605C46.1642 26.304 45.3566 25.0077 44.7249 23.9797C31.8493 3.23819 30.0388 0.357418 29.8304 0.2854C29.5959 0.200287 29.5373 0.200287 29.3549 0.272305Z" fill="#18333E"/>
<path d="M32.1503 11.6327C32.0298 11.7496 30.4889 13.5413 29.0241 15.2876C28.6183 15.768 28.2695 16.2224 28.2442 16.2873C28.1554 16.547 28.3203 16.8132 28.7768 17.1313C29.0241 17.3066 29.2207 17.4624 29.2207 17.4883C29.2207 17.5143 28.5676 18.2089 27.7686 19.0269C26.976 19.8449 26.2848 20.5849 26.2404 20.6693C26.0882 20.968 26.2848 21.4224 26.5891 21.4548C26.976 21.5003 27.014 21.4678 28.7958 19.6501C29.766 18.6634 30.6031 17.7675 30.6538 17.6701C30.8504 17.2936 30.6728 17.0469 29.7914 16.4496L29.6392 16.3458L29.9816 15.9238C30.1719 15.6901 30.6284 15.1513 30.9962 14.7293C33.019 12.3858 33.0254 12.3728 33.0254 12.0612C33.0254 11.6522 32.4483 11.373 32.1503 11.6327Z" fill="#18333E"/>
<path d="M21.508 53.9806C21.2288 54.0474 21.1704 54.6543 21.4366 54.7514C21.4951 54.7696 25.4888 54.7878 30.3204 54.7878H39.0937L39.2106 54.6604C39.3535 54.4904 39.3535 54.2901 39.1976 54.1141L39.0742 53.9685L30.3463 53.9624C25.5538 53.9563 21.573 53.9624 21.508 53.9806Z" fill="#18333E"/>
<path d="M2.244 43.328H3.432C3.96 43.328 4.376 43.212 4.68 42.98C4.984 42.748 5.136 42.408 5.136 41.96C5.136 41.512 4.98 41.172 4.668 40.94C4.356 40.708 3.9 40.592 3.3 40.592C3.116 40.592 2.932 40.6 2.748 40.616C2.564 40.632 2.396 40.656 2.244 40.688V43.328ZM3.48 44.336H0.996V40.28C0.996 40.136 1.032 40.028 1.104 39.956C1.184 39.884 1.292 39.824 1.428 39.776C1.668 39.704 1.96 39.652 2.304 39.62C2.648 39.58 2.992 39.56 3.336 39.56C4.36 39.56 5.128 39.772 5.64 40.196C6.152 40.62 6.408 41.204 6.408 41.948C6.408 42.428 6.292 42.848 6.06 43.208C5.828 43.568 5.496 43.848 5.064 44.048C4.632 44.24 4.104 44.336 3.48 44.336ZM3.396 43.988L4.404 43.628C4.62 43.892 4.84 44.168 5.064 44.456C5.288 44.744 5.504 45.024 5.712 45.296C5.928 45.56 6.116 45.804 6.276 46.028C6.444 46.244 6.576 46.416 6.672 46.544C6.624 46.712 6.532 46.848 6.396 46.952C6.268 47.048 6.128 47.096 5.976 47.096C5.784 47.096 5.632 47.052 5.52 46.964C5.416 46.868 5.308 46.744 5.196 46.592L3.396 43.988ZM0.996 43.94H2.256V46.976C2.2 46.992 2.12 47.012 2.016 47.036C1.912 47.06 1.8 47.072 1.68 47.072C1.44 47.072 1.264 47.028 1.152 46.94C1.048 46.844 0.996 46.692 0.996 46.484V43.94ZM10.8668 40.712H10.8068C10.7028 41.024 10.5748 41.388 10.4228 41.804C10.2788 42.212 10.1308 42.64 9.97875 43.088C9.82675 43.528 9.68275 43.944 9.54675 44.336L9.43875 44.816C9.39075 44.96 9.33475 45.132 9.27075 45.332C9.20675 45.532 9.13875 45.74 9.06675 45.956C9.00275 46.164 8.93875 46.36 8.87475 46.544C8.81075 46.728 8.76275 46.884 8.73075 47.012C8.65875 47.036 8.58275 47.056 8.50275 47.072C8.43075 47.096 8.33875 47.108 8.22675 47.108C8.03475 47.108 7.87475 47.064 7.74675 46.976C7.61875 46.888 7.55475 46.756 7.55475 46.58C7.55475 46.5 7.56675 46.42 7.59075 46.34C7.62275 46.252 7.65475 46.156 7.68675 46.052C7.77475 45.78 7.88675 45.448 8.02275 45.056C8.15875 44.656 8.31075 44.224 8.47875 43.76C8.64675 43.296 8.81875 42.828 8.99475 42.356C9.17075 41.876 9.33875 41.416 9.49875 40.976C9.66675 40.536 9.81475 40.152 9.94275 39.824C10.0228 39.784 10.1468 39.744 10.3148 39.704C10.4828 39.656 10.6508 39.632 10.8188 39.632C11.0428 39.632 11.2468 39.664 11.4308 39.728C11.6228 39.792 11.7428 39.9 11.7908 40.052C11.9748 40.5 12.1668 41.016 12.3668 41.6C12.5748 42.176 12.7828 42.776 12.9908 43.4C13.2068 44.024 13.4108 44.632 13.6028 45.224C13.7948 45.816 13.9668 46.352 14.1188 46.832C14.0548 46.912 13.9628 46.976 13.8428 47.024C13.7228 47.072 13.5908 47.096 13.4468 47.096C13.2308 47.096 13.0748 47.056 12.9788 46.976C12.8828 46.888 12.8028 46.752 12.7388 46.568L12.1748 44.816L12.0428 44.252C11.8988 43.804 11.7508 43.36 11.5988 42.92C11.4548 42.472 11.3188 42.06 11.1908 41.684C11.0628 41.3 10.9548 40.976 10.8668 40.712ZM8.86275 45.164L9.30675 44.156H12.4748L12.6788 45.164H8.86275ZM15.4218 40.952L16.5138 40.892C16.5458 41.172 16.5738 41.48 16.5978 41.816C16.6218 42.152 16.6378 42.492 16.6458 42.836C16.6538 43.172 16.6578 43.496 16.6578 43.808V46.976C16.6098 46.992 16.5298 47.012 16.4178 47.036C16.3138 47.06 16.2058 47.072 16.0938 47.072C15.8618 47.072 15.6898 47.028 15.5778 46.94C15.4738 46.852 15.4218 46.708 15.4218 46.508V40.952ZM21.4098 45.752L20.3058 45.8C20.2338 45.16 20.1898 44.52 20.1738 43.88C20.1658 43.232 20.1618 42.608 20.1618 42.008V39.716C20.2258 39.7 20.3098 39.684 20.4138 39.668C20.5178 39.644 20.6258 39.632 20.7378 39.632C20.9698 39.632 21.1378 39.676 21.2418 39.764C21.3538 39.844 21.4098 39.988 21.4098 40.196V45.752ZM21.4098 45.32V46.832C21.3298 46.904 21.2178 46.96 21.0738 47C20.9378 47.048 20.7818 47.072 20.6058 47.072C20.3898 47.072 20.1978 47.036 20.0298 46.964C19.8618 46.884 19.7138 46.724 19.5858 46.484L17.5818 43.004C17.4698 42.796 17.3498 42.576 17.2218 42.344C17.1018 42.112 16.9858 41.888 16.8738 41.672C16.7618 41.456 16.6698 41.268 16.5978 41.108L15.4218 41.384V39.908C15.5018 39.82 15.6138 39.752 15.7578 39.704C15.9018 39.656 16.0578 39.632 16.2258 39.632C16.4418 39.632 16.6338 39.672 16.8018 39.752C16.9698 39.832 17.1178 39.988 17.2458 40.22L19.2618 43.7C19.3818 43.9 19.5018 44.12 19.6218 44.36C19.7418 44.592 19.8538 44.816 19.9578 45.032C20.0698 45.248 20.1618 45.436 20.2338 45.596L21.4098 45.32ZM31.2286 40.58C31.2286 40.708 31.1886 40.824 31.1086 40.928C31.0366 41.024 30.9486 41.1 30.8446 41.156C30.6446 41.012 30.4086 40.88 30.1366 40.76C29.8646 40.64 29.5206 40.58 29.1046 40.58C28.6406 40.58 28.2246 40.688 27.8566 40.904C27.4966 41.112 27.2126 41.424 27.0046 41.84C26.7966 42.248 26.6926 42.756 26.6926 43.364C26.6926 44.276 26.9166 44.964 27.3646 45.428C27.8206 45.892 28.4206 46.124 29.1646 46.124C29.5566 46.124 29.8966 46.068 30.1846 45.956C30.4806 45.844 30.7286 45.716 30.9286 45.572C31.0246 45.628 31.1086 45.708 31.1806 45.812C31.2526 45.908 31.2886 46.024 31.2886 46.16C31.2886 46.272 31.2606 46.376 31.2046 46.472C31.1486 46.56 31.0526 46.644 30.9166 46.724C30.7406 46.836 30.5006 46.936 30.1966 47.024C29.8926 47.12 29.5046 47.168 29.0326 47.168C28.3606 47.168 27.7486 47.028 27.1966 46.748C26.6446 46.468 26.2046 46.048 25.8766 45.488C25.5566 44.92 25.3966 44.212 25.3966 43.364C25.3966 42.524 25.5606 41.82 25.8886 41.252C26.2166 40.684 26.6526 40.256 27.1966 39.968C27.7406 39.68 28.3326 39.536 28.9726 39.536C29.4286 39.536 29.8246 39.588 30.1606 39.692C30.4966 39.788 30.7566 39.916 30.9406 40.076C31.1326 40.236 31.2286 40.404 31.2286 40.58ZM34.0604 43.328H35.2484C35.7764 43.328 36.1924 43.212 36.4964 42.98C36.8004 42.748 36.9524 42.408 36.9524 41.96C36.9524 41.512 36.7964 41.172 36.4844 40.94C36.1724 40.708 35.7164 40.592 35.1164 40.592C34.9324 40.592 34.7484 40.6 34.5644 40.616C34.3804 40.632 34.2124 40.656 34.0604 40.688V43.328ZM35.2964 44.336H32.8124V40.28C32.8124 40.136 32.8484 40.028 32.9204 39.956C33.0004 39.884 33.1084 39.824 33.2444 39.776C33.4844 39.704 33.7764 39.652 34.1204 39.62C34.4644 39.58 34.8084 39.56 35.1524 39.56C36.1764 39.56 36.9444 39.772 37.4564 40.196C37.9684 40.62 38.2244 41.204 38.2244 41.948C38.2244 42.428 38.1084 42.848 37.8764 43.208C37.6444 43.568 37.3124 43.848 36.8804 44.048C36.4484 44.24 35.9204 44.336 35.2964 44.336ZM35.2124 43.988L36.2204 43.628C36.4364 43.892 36.6564 44.168 36.8804 44.456C37.1044 44.744 37.3204 45.024 37.5284 45.296C37.7444 45.56 37.9324 45.804 38.0924 46.028C38.2604 46.244 38.3924 46.416 38.4884 46.544C38.4404 46.712 38.3484 46.848 38.2124 46.952C38.0844 47.048 37.9444 47.096 37.7924 47.096C37.6004 47.096 37.4484 47.052 37.3364 46.964C37.2324 46.868 37.1244 46.744 37.0124 46.592L35.2124 43.988ZM32.8124 43.94H34.0724V46.976C34.0164 46.992 33.9364 47.012 33.8324 47.036C33.7284 47.06 33.6164 47.072 33.4964 47.072C33.2564 47.072 33.0804 47.028 32.9684 46.94C32.8644 46.844 32.8124 46.692 32.8124 46.484V43.94ZM42.6832 40.712H42.6232C42.5192 41.024 42.3912 41.388 42.2392 41.804C42.0952 42.212 41.9472 42.64 41.7952 43.088C41.6432 43.528 41.4992 43.944 41.3632 44.336L41.2552 44.816C41.2072 44.96 41.1512 45.132 41.0872 45.332C41.0232 45.532 40.9552 45.74 40.8832 45.956C40.8192 46.164 40.7552 46.36 40.6912 46.544C40.6272 46.728 40.5792 46.884 40.5472 47.012C40.4752 47.036 40.3992 47.056 40.3192 47.072C40.2472 47.096 40.1552 47.108 40.0432 47.108C39.8512 47.108 39.6912 47.064 39.5632 46.976C39.4352 46.888 39.3712 46.756 39.3712 46.58C39.3712 46.5 39.3832 46.42 39.4072 46.34C39.4392 46.252 39.4712 46.156 39.5032 46.052C39.5912 45.78 39.7032 45.448 39.8392 45.056C39.9752 44.656 40.1272 44.224 40.2952 43.76C40.4632 43.296 40.6352 42.828 40.8112 42.356C40.9872 41.876 41.1552 41.416 41.3152 40.976C41.4832 40.536 41.6312 40.152 41.7592 39.824C41.8392 39.784 41.9632 39.744 42.1312 39.704C42.2992 39.656 42.4672 39.632 42.6352 39.632C42.8592 39.632 43.0632 39.664 43.2472 39.728C43.4392 39.792 43.5592 39.9 43.6072 40.052C43.7912 40.5 43.9832 41.016 44.1832 41.6C44.3912 42.176 44.5992 42.776 44.8072 43.4C45.0232 44.024 45.2272 44.632 45.4192 45.224C45.6112 45.816 45.7832 46.352 45.9352 46.832C45.8712 46.912 45.7792 46.976 45.6592 47.024C45.5392 47.072 45.4072 47.096 45.2632 47.096C45.0472 47.096 44.8912 47.056 44.7952 46.976C44.6992 46.888 44.6192 46.752 44.5552 46.568L43.9912 44.816L43.8592 44.252C43.7152 43.804 43.5672 43.36 43.4152 42.92C43.2712 42.472 43.1352 42.06 43.0072 41.684C42.8792 41.3 42.7712 40.976 42.6832 40.712ZM40.6792 45.164L41.1232 44.156H44.2912L44.4952 45.164H40.6792ZM48.4862 44.036L47.2382 44.024V40.388C47.2382 40.18 47.2982 40.016 47.4182 39.896C47.5462 39.768 47.7102 39.704 47.9102 39.704C48.0302 39.704 48.1422 39.716 48.2462 39.74C48.3582 39.764 48.4382 39.788 48.4862 39.812V44.036ZM47.9102 44V42.956H51.4862C51.5182 43.012 51.5462 43.084 51.5702 43.172C51.6022 43.252 51.6182 43.344 51.6182 43.448C51.6182 43.616 51.5782 43.752 51.4982 43.856C51.4182 43.952 51.3062 44 51.1622 44H47.9102ZM47.9102 40.748V39.704H51.9062C51.9382 39.752 51.9662 39.824 51.9902 39.92C52.0222 40.008 52.0382 40.1 52.0382 40.196C52.0382 40.372 51.9982 40.508 51.9182 40.604C51.8382 40.7 51.7222 40.748 51.5702 40.748H47.9102ZM47.2382 42.92H48.4982V46.988C48.4502 46.996 48.3702 47.012 48.2582 47.036C48.1542 47.06 48.0422 47.072 47.9222 47.072C47.6902 47.072 47.5182 47.028 47.4062 46.94C47.2942 46.844 47.2382 46.696 47.2382 46.496V42.92ZM55.5681 40.748L55.5201 39.704H58.6161C58.6481 39.752 58.6801 39.824 58.7121 39.92C58.7441 40.008 58.7601 40.1 58.7601 40.196C58.7601 40.372 58.7161 40.508 58.6281 40.604C58.5481 40.7 58.4361 40.748 58.2921 40.748H55.5681ZM56.1441 39.704L56.1801 40.748H53.0841C53.0521 40.7 53.0201 40.632 52.9881 40.544C52.9561 40.448 52.9401 40.348 52.9401 40.244C52.9401 40.068 52.9801 39.936 53.0601 39.848C53.1481 39.752 53.2641 39.704 53.4081 39.704H56.1441ZM55.2201 40.424H56.4681V46.976C56.4201 46.992 56.3401 47.012 56.2281 47.036C56.1161 47.06 56.0041 47.072 55.8921 47.072C55.6601 47.072 55.4881 47.028 55.3761 46.94C55.2721 46.844 55.2201 46.692 55.2201 46.484V40.424Z" fill="#18333E"/>
</svg>
