<svg width="48" height="48" viewBox="0 0 48 48" fill="none" xmlns="http://www.w3.org/2000/svg">
<path d="M24 24C27.3137 24 30 21.3137 30 18C30 14.6863 27.3137 12 24 12C20.6863 12 18 14.6863 18 18C18 21.3137 20.6863 24 24 24Z" stroke="#1C274C" stroke-width="3"/>
<path d="M35.9382 40C35.62 34.217 33.8494 30 23.9998 30C14.1504 30 12.3798 34.217 12.0615 40" stroke="#1C274C" stroke-width="3" stroke-linecap="round"/>
<path d="M14 6.67564C16.9417 4.97394 20.3572 4 24 4C35.0456 4 44 12.9543 44 24C44 35.0456 35.0456 44 24 44C12.9543 44 4 35.0456 4 24C4 20.3572 4.97394 16.9417 6.67564 14" stroke="#1C274C" stroke-width="3" stroke-linecap="round"/>
</svg>
