<svg width="17" height="17" viewBox="0 0 17 17" fill="none" xmlns="http://www.w3.org/2000/svg">
<path fill-rule="evenodd" clip-rule="evenodd" d="M8.5 0C13.1869 0 17 3.8131 17 8.5C17 13.1869 13.1869 17 8.5 17C3.8131 17 0 13.1869 0 8.5C0 3.8131 3.8131 0 8.5 0ZM8.5 1.275C4.51605 1.275 1.275 4.51605 1.275 8.5C1.275 12.484 4.51605 15.725 8.5 15.725C12.484 15.725 15.725 12.484 15.725 8.5C15.725 4.51605 12.484 1.275 8.5 1.275ZM8.21202 4.33109C8.56477 4.33109 8.84952 4.61669 8.84952 4.96859V8.72729L11.7438 10.4528C12.0455 10.6338 12.145 11.0248 11.9648 11.3274C11.8449 11.5272 11.6333 11.6385 11.4165 11.6385C11.3052 11.6385 11.193 11.6096 11.0901 11.5493L7.88562 9.63764C7.69352 9.52204 7.57452 9.31379 7.57452 9.08939V4.96859C7.57452 4.61669 7.86012 4.33109 8.21202 4.33109Z" fill="#18333E" fill-opacity="0.8"/>
</svg>
